Coordinates											
version=1											
nRows=91											
nColumns=12											
inDegrees=yes											
											
"Units are S.I. units (second, meters, Newtons, ...)"											
"If the header above contains a line with 'inDegrees', this indicates whether rotational values are in degrees (yes) or radians (no)."											
											
endheader											
time	clav_prot	clav_elev	scapula_abduction	scapula_elevation	scapula_upward_rot	scapula_winging	plane_elv	shoulder_elv	axial_rot	elbow_flexion	pro_sup
5.45	-39.4333398	9.98362939	-8.98682615	-1.95425096	61.73125699	-11.14359081	9.05029483	78.03155685	2.16591722	0	34.32
5.46	-39.47251074	9.94851242	-9.04396962	-1.98108433	61.7258847	-11.15542395	9.18517779	78.11458926	2.12086801	0	34.32
5.47	-39.44301072	9.91998828	-8.884835	-1.9985355	61.84827973	-11.13436018	9.22636421	78.31363644	2.15877322	0	34.32
5.48	-39.47543878	9.82322051	-8.76981512	-2.06711791	62.0133829	-11.1290373	9.37342299	78.59224917	2.12820084	0	34.32
5.49	-39.53211456	9.79572184	-8.74494741	-2.09062174	62.14633224	-11.15206575	9.61465816	78.85937089	2.03214148	0	34.32
5.5	-39.50385576	9.37588874	-8.93692693	-2.37074826	61.68421736	-11.03242998	9.81595482	79.50061188	1.86401061	0	34.32
5.51	-39.51783124	9.40345477	-8.929052	-2.35334175	61.73316261	-11.04667719	9.83113359	79.53708641	1.86545171	0	34.32
5.52	-39.49236538	9.12988013	-8.97002925	-2.53556855	61.52108454	-10.96306261	9.91120931	80.08821865	1.68823359	0	34.32
5.53	-39.50453856	9.14844723	-8.92704617	-2.52432821	61.60561542	-10.97457165	9.95866082	80.13319546	1.68768215	0	34.32
5.54	-39.59443954	9.79683361	-8.26860897	-2.09497025	62.8520813	-11.1845992	10.01996497	79.89431886	1.5223781	0	34.32
5.55	-39.66976573	9.8116586	-8.32370987	-2.09078727	62.9427872	-11.22678742	10.28463152	80.12282784	1.42454041	0	34.32
5.56	-39.77454358	9.92419102	-8.47665697	-2.02295643	63.01336317	-11.30785758	10.58082031	80.22722988	1.39197145	0	34.32
5.57	-39.83740632	9.95643298	-8.60023243	-2.00621438	63.00253359	-11.34848948	10.86581973	80.28516326	1.3790684	0	34.32
5.58	-39.83330513	10.05695169	-8.58099014	-1.93787329	63.05886139	-11.36987282	11.08141893	80.37102315	1.48255971	0	34.32
5.59	-39.79125916	10.0181682	-8.45427439	-1.96051354	63.11263797	-11.33837605	11.24234422	80.55148534	1.61889921	0	34.32
5.6	-39.77120044	9.93865214	-8.3173471	-2.01223875	63.20653449	-11.30856285	11.39093719	80.80006263	1.69613942	0	34.32
5.61	-39.79346016	9.91826124	-8.22459084	-2.02714139	63.35609494	-11.31429165	11.57891601	81.05717254	1.70629554	0	34.32
5.62	-39.78258107	9.49228154	-8.34385782	-2.31554452	63.01667592	-11.20695352	11.7893802	81.66670587	1.58622946	0	34.32
5.63	-39.79190284	9.52799766	-8.34119606	-2.29192974	63.05321851	-11.22033773	11.81398292	81.68543847	1.58660935	0	34.32
5.64	-39.85381173	9.99169897	-8.0841556	-1.98057384	63.67861876	-11.36053875	12.00811693	81.342152	1.54763604	0	34.32
5.65	-39.852042	9.97138345	-8.03551027	-1.99373507	63.72609717	-11.35420646	12.0559978	81.39331175	1.55458139	0	34.32
5.66	-39.89186143	9.80984191	-7.95028509	-2.10515119	63.84529081	-11.33500172	12.45038144	81.74853505	1.6362993	0	34.32
5.67	-39.98363737	9.85349942	-7.99944725	-2.08181298	63.98822887	-11.39191945	12.78297874	81.98527886	1.64494807	0	34.32
5.68	-40.0527083	9.99270732	-8.04745859	-1.99213829	64.12517934	-11.45990471	13.08093047	82.19038197	1.58917951	0	34.32
5.69	-40.07177523	10.07174042	-8.02174305	-1.9393502	64.22695259	-11.48726507	13.29887364	82.36888152	1.51121381	0	34.32
5.7	-40.05750513	10.00595323	-7.92102033	-1.98190195	64.29444186	-11.4630374	13.488501	82.52800607	1.45546595	0	34.32
5.71	-40.04922711	9.82466669	-7.76455981	-2.10249819	64.39588256	-11.41362831	13.68935922	82.74258565	1.41361528	0	34.32
5.72	-40.03676754	9.62374275	-7.5211273	-2.23499282	64.5883218	-11.35445434	13.91635816	82.96813844	1.39285162	0	34.32
5.73	-40.07796779	9.50493155	-7.34395239	-2.31530667	64.84188288	-11.34145706	14.16478138	83.072419	1.32877238	0	34.32
5.74	-40.20917386	9.59466455	-7.40361539	-2.26186181	65.07022578	-11.4282461	14.5248092	83.08636332	1.25410819	0	34.32
5.75	-40.39596039	9.8232914	-7.62405405	-2.1192692	65.26922341	-11.57972399	14.9079368	82.98584252	1.20832135	0	34.32
5.76	-40.52598017	9.97244151	-7.72689768	-2.02574582	65.46596279	-11.68112473	15.20056916	82.97170772	1.19495616	0	34.32
5.77	-40.54403132	9.90685876	-7.55863316	-2.06752236	65.68264573	-11.66905859	15.332253	83.15167493	1.15540539	0	34.32
5.78	-40.47361131	9.68219801	-7.23358504	-2.21034992	65.84974139	-11.57095108	15.34273985	83.46500637	1.05742381	0	34.32
5.79	-40.38188212	9.60678553	-6.87660144	-2.24945145	66.07162733	-11.4961891	15.35862856	83.77608872	0.94447776	0	34.32
5.8	-40.40190323	9.58875475	-6.79560227	-2.26041664	66.20469367	-11.49810962	15.57453976	84.05224229	0.78641579	0	34.32
5.81	-40.43579644	9.70186175	-6.7888528	-2.18405773	66.32583423	-11.54039916	15.8860802	84.21553803	0.68919768	0	34.32
5.82	-40.46748584	9.78733993	-6.79031826	-2.12670206	66.42177592	-11.57528916	16.21027006	84.32382802	0.67564446	0	34.32
5.83	-40.505026	9.86428248	-6.80794128	-2.07581367	66.50656541	-11.61135652	16.51134595	84.4263146	0.72855204	0	34.32
5.84	-40.58990017	9.96705051	-6.90650028	-2.01111579	66.5986272	-11.67901259	16.81463847	84.54908599	0.77277837	0	34.32
5.85	-40.67200022	10.08065481	-6.99321757	-1.93853812	66.70391969	-11.74720039	17.06928667	84.68878457	0.78106476	0	34.32
5.86	-40.68685731	10.13434155	-6.95991219	-1.90126913	66.79603921	-11.76469726	17.23001468	84.82007612	0.78880518	0	34.32
5.87	-40.65374621	9.96281574	-6.90072501	-2.01587612	66.7338347	-11.70787923	17.36307352	84.9024489	0.73572667	0	34.32
5.88	-40.64902298	9.95870292	-6.86192799	-2.01725996	66.7703421	-11.70277433	17.4225282	84.94529731	0.74128038	0	34.32
5.89	-40.59724772	9.95207613	-6.56860842	-2.01111281	67.02192138	-11.66316432	17.79459997	85.1401156	0.96389127	0	34.32
5.9	-40.65491571	9.84809008	-6.52268114	-2.08228934	67.15553961	-11.66378226	18.09934626	85.26863542	1.107156	0	34.32
5.91	-40.71700092	9.77499873	-6.47567502	-2.13223593	67.31175223	-11.67308524	18.40480098	85.37283505	1.24133868	0	34.32
5.92	-40.74494945	9.68949467	-6.35477357	-2.18722248	67.48457556	-11.65962608	18.60584135	85.46638375	1.34621742	0	34.32
5.93	-40.61496119	9.22583398	-6.31560963	-2.50115439	67.09044511	-11.48777181	18.62178322	86.15388812	1.24536405	0	34.32
5.94	-40.68229727	9.80862846	-5.86865737	-2.08600112	67.99932487	-11.63121112	18.58341126	85.80511927	1.31693889	0	34.32
5.95	-40.63759134	9.29077622	-5.82893853	-2.43972719	67.76057439	-11.48787545	18.66368903	86.62178554	1.1639982	0	34.32
5.96	-40.76709126	9.75830671	-5.61892564	-2.1112778	68.46071388	-11.64246272	18.92921918	86.33042644	1.08698696	0	34.32
5.97	-40.77876502	9.66659384	-5.50885947	-2.1696919	68.58567673	-11.618592	19.25328364	86.46990231	1.10653324	0	34.32
5.98	-40.92013133	9.55059316	-5.6855225	-2.25830941	68.61465728	-11.6654346	19.61701903	86.55363364	0.96507108	0	34.32
5.99	-40.99557762	9.98306047	-5.74785442	-1.96369912	68.85621551	-11.80137341	19.94667778	86.69108045	1.05594679	0	34.32
6	-41.00250088	10.00668381	-5.73229257	-1.9467608	68.89874272	-11.80804355	19.98909116	86.75066668	1.06008811	0	34.32
6.01	-41.17324927	10.06474754	-5.91977034	-1.9160231	69.04036233	-11.90918719	20.43064566	86.84157109	1.05616121	0	34.32
6.02	-41.24507816	9.90691339	-5.94409337	-2.02597026	69.09752193	-11.90778369	20.63286693	86.94696048	1.00031915	0	34.32
6.03	-41.24741359	9.97754071	-5.79236294	-1.96993893	69.31629241	-11.91379625	20.77759889	87.10640235	1.07596893	0	34.32
6.04	-41.25802277	9.97722554	-5.76016512	-1.96854763	69.37784096	-11.91540572	20.81384275	87.18805952	1.07959269	0	34.32
6.05	-41.17201255	9.61358232	-5.57551536	-2.21038314	69.29173824	-11.78259557	20.86631293	87.65842421	0.89652475	0	34.32
6.06	-41.17645066	9.61794045	-5.53651923	-2.20541803	69.35076708	-11.78226741	20.93814415	87.70036437	0.89534433	0	34.32
6.07	-41.332683	9.73639163	-5.44429497	-2.11811133	69.83060433	-11.86990021	21.47952303	87.62285224	0.60665449	0	34.32
6.08	-41.32152351	9.71279615	-5.31876116	-2.1277953	69.9542399	-11.84929587	21.8004641	87.77483294	0.607717	0	34.32
6.09	-41.28202257	9.75544765	-5.17238163	-2.09081677	70.06960466	-11.83038282	22.00694146	88.00436057	0.40357577	0	34.32
6.1	-41.2817307	9.79967312	-5.08489674	-2.05537513	70.19367495	-11.83262086	22.33598126	88.09834941	0.39530404	0	34.32
6.11	-41.39701312	9.91703254	-5.10974312	-1.97411579	70.44461662	-11.90950859	22.53494029	88.13428909	0.18617852	0	34.32
6.12	-41.39758654	9.91637179	-5.06293364	-1.97176624	70.5035096	-11.90519782	22.60332568	88.18980748	0.18594326	0	34.32
6.13	-41.47291074	9.99459365	-4.81938421	-1.90163929	70.98953763	-11.93162807	23.04292612	88.20984438	0.0023228	0	34.32
6.14	-41.43142908	9.80934275	-4.59138912	-2.01681044	71.11722364	-11.85319047	23.20455217	88.2105135	-0.02493177	0	34.32
6.15	-41.415891	9.49030619	-4.4730419	-2.23105713	71.11471091	-11.76470113	23.4575065	88.48373846	-0.10003459	0	34.32
6.16	-41.44742163	9.52574331	-4.39513107	-2.20073055	71.2897969	-11.77792039	23.81108846	88.50850069	-0.10096328	0	34.32
6.17	-41.65873369	9.84380866	-4.46099828	-1.97812289	71.76288349	-11.94056725	24.15849917	88.31555697	-0.19093127	0	34.32
6.18	-41.67216826	9.84544324	-4.43532173	-1.97483206	71.82344606	-11.94337313	24.19888351	88.39481613	-0.1889066	0	34.32
6.19	-41.78058552	9.90806452	-4.34006544	-1.9210583	72.18990495	-11.99080592	24.57350489	88.41931175	-0.35960446	0	34.32
6.2	-41.78437781	9.92180516	-4.30816872	-1.90904398	72.24258291	-11.99153049	24.60723702	88.48704442	-0.35769583	0	34.32
6.21	-41.87915677	9.91249962	-4.23677853	-1.90667993	72.52521319	-12.01954244	25.05860727	88.66456958	-0.48347794	0	34.32
6.22	-41.87401792	9.85136578	-4.0932202	-1.93887988	72.67082	-11.98866566	25.26544151	88.71237708	-0.55541627	0	34.32
6.23	-41.81437125	9.45525205	-4.04773988	-2.21385612	72.45975787	-11.87337004	25.26731209	88.86227425	-0.65094731	0	34.32
6.24	-41.80626613	9.46788426	-4.00196431	-2.20200353	72.50448848	-11.86782618	25.32123452	88.87412316	-0.65178019	0	34.32
6.25	-41.80977846	9.69192554	-3.60435429	-2.01595545	73.08763715	-11.87417077	25.49791184	88.62814965	-0.74891681	0	34.32
6.26	-41.73640968	9.58833333	-3.25171634	-2.06431957	73.33634938	-11.7828339	25.65453726	88.79152635	-0.78298144	0	34.32
6.27	-41.67110231	9.26630984	-3.06647559	-2.27799461	73.31638966	-11.66533265	25.72972625	89.07333139	-0.86431009	0	34.32
6.28	-41.68303186	9.24668199	-2.94892283	-2.2816551	73.48126675	-11.65140448	26.1015684	89.11905038	-0.88292828	0	34.32
6.29	-41.78816137	9.26319557	-2.93140692	-2.26300187	73.72956532	-11.69200616	26.40989685	89.13326784	-1.01348767	0	34.32
6.3	-41.76850265	9.32372557	-2.83653293	-2.21385695	73.82812381	-11.68657567	26.69997624	89.12406513	-1.02141681	0	34.32
6.31	-41.77195591	9.24174301	-2.81450665	-2.26922999	73.83415728	-11.66693632	26.84950116	89.27714447	-1.07628297	0	34.32
6.32	-41.80578982	9.30813672	-2.7419054	-2.21470866	74.01923365	-11.68513649	27.13626597	89.18767558	-1.14120246	0	34.32
6.33	-41.83584299	9.30423114	-2.68192601	-2.21055609	74.15606289	-11.68776518	27.4336032	89.18538943	-1.18165912	0	34.32
6.34	-41.81740209	9.34134718	-2.5367328	-2.17318696	74.31173586	-11.67064452	27.80724909	89.19167543	-1.17979203	0	34.32
6.35	-41.91849259	9.51512381	-2.4038737	-2.03297586	74.75141532	-11.72738036	28.05413755	89.06194001	-1.24513433	0	34.32
